/* XPM */
static char *result[] = {
/* columns rows colors chars-per-pixel */
"64 64 195 2 ",
"   c #553311",
".  c #583613",
"X  c #5D3A17",
"o  c #683706",
"O  c #683806",
"+  c #723E0D",
"@  c #72400E",
"#  c #63401B",
"$  c #504F33",
"%  c #565439",
"&  c #684520",
"*  c #7A5626",
"=  c #7D5928",
"-  c #7D5832",
";  c #001C54",
":  c #0A2457",
">  c #00255E",
",  c #132B59",
"<  c #192D5B",
"1  c #1D325B",
"2  c #20335F",
"3  c #002D65",
"4  c #00366F",
"5  c #173664",
"6  c #293A62",
"7  c #303F60",
"8  c #3E4563",
"9  c #474F67",
"0  c #5D636E",
"q  c #66696F",
"w  c #7A766B",
"e  c #656971",
"r  c #777776",
"t  c #787077",
"y  c #797876",
"u  c #855A28",
"i  c #905D2B",
"p  c #876231",
"a  c #9B6A38",
"s  c #9F793D",
"d  c #A07A3D",
"f  c #966D45",
"g  c #977047",
"h  c #997149",
"j  c #86795E",
"k  c #A67442",
"l  c #AA7A46",
"z  c #A87F55",
"x  c #8B7E68",
"c  c #817D75",
"v  c #897874",
"b  c #AB8546",
"n  c #B18B49",
"m  c #B9934D",
"M  c #B28456",
"N  c #BB9453",
"B  c #978668",
"V  c #9C8D6E",
"C  c #858872",
"Z  c #958873",
"A  c #9A8C71",
"S  c #A99367",
"D  c #A2916E",
"F  c #A9956B",
"G  c #BB9D64",
"H  c #B9996A",
"J  c #A79470",
"K  c #BDA56C",
"L  c #A4AC7D",
"P  c #BBAF73",
"I  c #BEB376",
"U  c #B8B57D",
"Y  c #C88A4E",
"T  c #C98C50",
"R  c #C29A52",
"E  c #C89E55",
"W  c #D3985E",
"Q  c #C7A45F",
"!  c #CDA65B",
"~  c #CFA85B",
"^  c #D4AC5D",
"/  c #D8AF5F",
"(  c #D9B05F",
")  c #CA9765",
"_  c #CC9F76",
"`  c #C6A566",
"'  c #C9A766",
"]  c #CEA961",
"[  c #CDAC6A",
"{  c #D4AD62",
"}  c #D6AA68",
"|  c #D7B062",
" . c #DCB261",
".. c #D7B26C",
"X. c #DBB46A",
"o. c #DEB86E",
"O. c #CFAF75",
"+. c #DAAA7A",
"@. c #C7B776",
"#. c #CFB27E",
"$. c #D3B375",
"%. c #DEB870",
"&. c #D4B378",
"*. c #D9B678",
"=. c #E2B763",
"-. c #E5B964",
";. c #E2B76B",
":. c #E3B968",
">. c #E6AE77",
",. c #E3B775",
"<. c #E6B974",
"1. c #E8B27B",
"2. c #EABD78",
"3. c #EEC179",
"4. c #F1C17C",
"5. c #00518B",
"6. c #025D95",
"7. c #00619B",
"8. c #006AA4",
"9. c #007DB8",
"0. c #697593",
"q. c #0C83B9",
"w. c #78839D",
"e. c #5DB6B8",
"r. c #77B4A6",
"t. c #7FBDA9",
"y. c #63BBBB",
"u. c #67BBB9",
"i. c #009DD9",
"p. c #17A1C5",
"a. c #18A3C8",
"s. c #05A5DD",
"d. c #24AED4",
"f. c #2FBDDF",
"g. c #3ABCD6",
"h. c #33BDDB",
"j. c #0CB5ED",
"k. c #04B9F5",
"l. c #01BFFD",
"z. c #35BEE5",
"x. c #00C1FF",
"c. c #0EC0F9",
"v. c #16C0F5",
"b. c #1CC1F4",
"n. c #39C1E7",
"m. c #34C2E9",
"M. c #39C1E8",
"N. c #20C0F1",
"B. c #5BC2D5",
"V. c #62C3D6",
"C. c #74C5D0",
"Z. c #4CC2E0",
"A. c #9F8C81",
"S. c #AE9483",
"D. c #A3928B",
"F. c #B2B08F",
"G. c #8FB9AC",
"H. c #C9A88A",
"J. c #CFB384",
"K. c #D1B380",
"L. c #D7B588",
"P. c #C3AB99",
"I. c #E1B384",
"U. c #E9B785",
"Y. c #EBBA84",
"T. c #ECBC8A",
"R. c #F1BE8C",
"E. c #EBBE92",
"W. c #9FC7BE",
"Q. c #AFC4B0",
"!. c #D7C396",
"~. c #EEC186",
"^. c #F5C589",
"/. c #F5C58D",
"(. c #EDCA9E",
"). c #F3C495",
"_. c #FAC795",
"`. c #FBC995",
"'. c #F4C698",
"]. c #F3CA9D",
"[. c #FECB99",
"{. c #C6C9AF",
"}. c #CBC9AE",
"|. c #D0C8AB",
" X c #C4C9B0",
".X c #F2CDA2",
"XX c #F9DABA",
"oX c #8CC5C6",
"OX c #82C5C9",
"+X c #EFDBC7",
"@X c #FAE3CB",
"#X c #FFE9D2",
"$X c #DEDFE2",
"%X c #F1EEEB",
"&X c #FFF9F3",
/* pixels */
"~ ~ ~ ~ ~ ( -.-.-.-.=. . . .(  .~ ~ / -.-.-.-.-. . .(  . . . . . .|  . . . . .| ~ ~ / -.-. . . ./  ./ ~ ~ ( -.-.=.( / ! ^ ( -.-.",
"~ ~ ~ ~ ^ ( -.-.-.-.=. . . . ./ ~ ! / -.-.-.-.-. . . . .( =. . .( (  . .|  . ./ ~ ~ / -.-.=. . . . ./ ~ ! =.-.-. . .^ ! ! ( -.-.",
"^ ^ ^ ^ ^ ..o.o.-. . .=. .-. . ./ ^ /  .=. . . .=.=. ./ / ( =.=.X.....^ / ( =. ./ ^ /  . . .=. . ./ / ^ ^ / =. .=. .( ^ ~ X.;.<.",
" . . . . .$.J.#.^ ~ / -.-.-.-.-. . .^ ~ ~ ~ ~ ^ =.-. .~ ~  .-.-.K.K.O.^ ~ =.-.-. . ./ ~ ~ =.-.-. .=.( ( / ^ ~ ~ -.-.=.! ~ O.J.J.",
"| (  . . .$.J.J.] ~ / -.-.-.-.-. .| / ~ ~ ^ ~ ^ =.-. .^ ~  .-.-.K.K.O.~ ~ ( -.-. .( / ~ ! =.-.-. . .(  . .^ ~ ^ -.-. .~ ~ $.J.J.",
"^ ^ ( -.-.X.....| ^  . .=.( / ( =.-.=.^ { [ O.$.=.=./ ~ ~  .-.-.......^ / / / /  .-. ./ ^ / =.=. . ...$.&.| / | / ( (  .( X...X.",
"~ ~ ^ -.=.-. .(  . . . . .^ ~ ~ =.-.=. . .&.J.K.|  .^ ~ ~  .-.-.=. ./  ./ ^ ~ ^ -.-.=. . . ./  . . ...L.J... . .^ ! / -.-. . .( ",
"~ ~ ^ -.-. . . . . . . . .^ ~ ^ =.-.=. .| [ H H R R N m m R E E R R R R R m m m E E R R ~ / =./ / ( ..K.K... . .^ ~ / -.-. . . .",
"~ ~ ( -.-.=. . .-.-.-. . . .(  . .( =. .^ N p = * - * * * - u u * = = = = = * * = = = u b ~ ~ ~ ~ ~ ^ 3.=.-.-.=.( ( ^ ^ ~ ( -.-.",
"^ ~ / -.-. . . .-.-.-.( (  . . . ./ /  .^ b #                                         . s ! ~ ~ ~ ~ ^ -.-.-.-.3. .( ^ ~ ~ =.-.-.",
"! ! ^ -.-. .^ /  .( =. . . .^ /  .=.=./ / b X                                         . d ~ ~ ^ ^ ^ ( ( ( =.=.(  . . .^ ( ( -.-.",
"! ! ( -.-.( ~ ~ ~ ~ / -.-.^ ! ^ -.-.=.=.^ b # .                                       . s ~  . .( ( ( ~ ~ ~ ~ ~ -.-.3.-.-.=.( ( ",
"^ ! ( -.-.^ ^ ^ ! ^ { -.-.^ ^ ^ -.-.=./ ^ l X                                       . . s ~  . .( ( ( ~ ~ ~ ~ ~ -.-.-.=.-.=.( ( ",
"! ! / -.-. .^ ^ ^ / ..*.*...^ ^ / ^ / -.=.n & X - f h f h h f h g g g g g g h h f - . . s ! ^ ^ =.-.( ( ( ( ( ( -.( ( 3.=.( ( ( ",
"~ ~ ^ -.-.-. . .( ( ..J.J...( ( ^ ~ / -. .b X X z I.I.I.I.I.I.I.I.I.I.I.I.I.I.I.#.z . X s ! ! ~ -.-.-.( ( ( =.( ( (  .( ( -.=.( ",
"~ ~ ( -.-. . . . . ...K.K.X. .( ~ ~ ^ -.=.n & & H .X[.'.'.'.].[.[.[.[.[.'.'.'.[.'.H X X k ! ~ ^ =.-.-.( =.( ( ( ( (  . . .( ( ( ",
"~ ~ ( -.-. . . . . . .X. . . .| ~ ~ ( -.=.R h h H.@XXXP.A S.L.[.[.[.[.E.S.A.P.+XXXJ.h h N ^  ./ ~ ~ ( -.-. . . .^ ~ ( -.-. . . .",
"~ ~ ^ -.-.=. . .( (  . . . . .( ~ ~ ( -.-.3.~.).@X&X%X0.2 9 S.[.[.[.[.H.9 6 w.$X&X@X).T.,. . ./ ~ ~ ( -.-.=. .( ~ ~ ( -.-. .(  .",
"{ [ |  . .=. .=.( =.( (  .( ( ( ( ~ ( =.X.3.'.[.#X&X%X0.2 8 A.R.[._._.H.8 , w.$X&X#X[.[.3.X. . .^ ( ( =.=. . .( ~ ~ ( -.3. . . .",
"J.J.O.~ ^  .-.-.( =.( (  .^ ~ ~ =.3.=.(  .3.`.[.+X#X+XD.t v _ >.>.>.>._ v t D.+X@XXX[.[.4.=. . .(  .( (  . . . .~ ~ | -.-.=. . .",
"J.J.O.! ~ ( -.-.( ( ( ( ( ^ ~ ^ -.-.-.( X.3.'.[.[.[.[.[.[.R.} T Y Y Y W R._.[.[.[.[.[.[.3.-.(  .(  .( (  . . .( ~ ~ ( -.-.=.( ( ",
"....{ ^ ~ ( -.-.( ~ ( -.-.( ( ( ( ( ( ( =.3.`.[.[.[.[._.R.R.W T T T Y W U._._.[.[.[.[.[.3.=.-.( ^ ^ ( =.=.=. .( ~ ~ ( -.-.( ( ( ",
"(  ./ ! ^ ( -.-.^ ~ ( -.3.( ( ( ~ ~ ( -.3.3.`.[.[.[.R.) k z W 1.1.1.1.} l k ) R.[.[.[.`.o.( 3.( ^ ~ ( -.-. .( ( ~ ~ | =.-.=. . .",
" . .^ ! ^ =.-.-.^ ~ ( -.-.( ( ( ^ ~ ( -.( 3.`.[.[.[.R.k + i ) _._._.[.+.i @ l T.[.[.[.`.3.( -.3.^ ~ ^ =.-.=. . .^ ~ | -.-.=.( =.",
" . .^ ~ ~  .-.=.( ( =.-.o.@.@.I I I I P P &.'.[.[.[./.a O u M U.U.U.T.) u o a U.[.[.[.[.L.@.@.@.I I P P P ( -.-.( ( | @.K.%.-.-.",
" . .^ ~ ~ ( 3.=.( ( =.-.@.t.y.y.y.y.y.e.u.W.(.[.[.[.R.a O + i k k k k a + o l U.[.[.[.[.Q.u.u.u.y.y.y.e.r.{ 3.-. .( | !.J.%.-.-.",
" . . .^ ^ X.o.o.( ( ( ( U g.x.c.x.c.c.c.c.V.(.`.`.`.R.a O o o O o o o o o o k U.[.[.[.].C.v.x.c.c.x.c.c.h.I  . .=.=.X.@.$.o.-.=.",
" . . . . .&.J.K. .( ( ^ L h.k.x.x.x.x.x.c.Z.Q.}.}.}.{.w % $ $ $ $ $ $ $ $ % C F.}.}.}.{.B.c.x.x.x.x.x.x.h.P ~ ~ -.-.=.(  . . . .",
" . . .(  .$.J.#.X.( / ~ L h.x.x.x.x.x.k.x.v.m.n.n.n.z.d.a.p.p.p.p.p.p.p.a.a.d.z.M.n.M.m.b.x.k.x.x.x.k.x.f.P ~ ^ -.-.-.(  . .|  .",
"|  .| ^ ^ ..<.;. . . .( L h.x.x.x.k.x.x.x.x.l.x.l.x.l.x.x.x.x.x.x.x.x.x.l.x.l.l.l.l.l.l.l.x.x.x.x.x.x.c.f.@./ /  . ./ ^ ^  . .-.",
" .( ^ ~ ~ ( -.-. . . .( U B.m.m.m.m.m.m.m.N.k.x.l.l.l.x.l.l.l.l.l.x.l.l.l.l.l.l.l.l.l.l.N.m.m.m.m.m.m.n.B.@. . . . ./ ~ ~ -.-.-.",
" . .^ ^ ~  .-.-. . . .X.%.!.}.}.|.|.|.|.{.OXv.x.l.l.l.l.l.l.l.l.l.l.l.l.l.l.l.l.x.l.l.l.C. X|.|.|.|.|.|.!.o. . . . ./ ~ ~  .-.-.",
" . ./ ~ ^ ( -.-. . ...K.L./.`.[.[.].`.[..XW.v.l.l.l.l.l.l.l.l.l.l.l.l.l.x.l.l.l.l.l.l.l.oX(.[.`.[.[.[.]./.;.-.-. . ./ ~ ~  .-.-.",
"|  ./ ~ ~ =.-.-. . ...K.L.).[.[.[.[.[.[.].W.v.x.l.l.l.x.l.l.l.l.l.l.l.l.l.l.l.l.x.l.l.l.oX].[.[.[.[.[.[./.;.-.-. . ./ ~ ~  .-.-.",
"(  ./ ^ ^ (  . .=.=...O.*./.[.[.[.[.[.[.].W.v.l.l.x.l.l.l.l.l.l.l.l.l.l.l.l.l.x.l.l.l.l.oX(.[.[.[.[.[.[./.;. .(  . . .~ ~ X.;.%.",
" . . . .( ^ ! ^ =.-.( ^ X./.`.[.[.[.[.[.].W.v.l.l.l.l.l.l.l.l.l.l.x.l.l.l.l.l.l.l.l.l.x.oX(.[.[.[.[.[.[./.| ^ ~ -.-. .^ ~ $.J.J.",
" . . . . .^ ~ ~ -.-.( ^ } ^.[.[.[.[.[.[.].oXf.l.l.l.l.l.l.l.l.l.x.l.l.l.l.l.l.l.x.x.k.c.oX.X`.[.[.[.[.`./. .^ ^ -.-.( ~ ~ O.J.J.",
" . .|  . .^ ~ ^ =.-.=./ ;./.[.[.[.[.[.`..XW.c.l.l.l.l.x.l.l.l.l.l.l.l.x.l.x.l.l.x.k.x.x.oX.X[.`.`.[.[.[._.;.( ( ( -.( ~ ~ ..o.o.",
" . .(  . .^ ! ^ -.-.=.( ;.^.[.[.[.[.[.[..XW.j.l.k.l.l.k.l.k.k.k.l.k.l.k.k.k.l.l.x.x.x.x.oX(.`.`.`.[.[.`./.:.X. . . ./ ~ ^ ( -.-.",
" .( ( X.| ^ ~ ^ =.-.-.( ;./._.[.[.[.[.[..XF.q.9.9.9.9.9.9.9.9.9.9.9.9.9.9.9.i.k.x.x.k.k.W.!.~.~.Y.2.~.~.4.=.(  . . ./ ~ ^ ( -.-.",
" .( ..J.#.o.-.=. . . . .;.^.[.[.[.[.[.[.).A.5 3 ; 3 > > > 3 ; 3 3 > > > > 3 8.s.x.l.l.l.t.@. .-. .X. .^ /  .-.-. . . .(  .^ ~ ^ ",
" .( ..J.J.%.-.-. . . . .;.^.[.[.[.`.[.[.).A., ; ; ; ; ; ; ; ; ; ; ; ; ; ; ; 6.i.k.k.l.l.t...( (  . .^ ~ ~ ( -.-.(  . . . .^ ~ ~ ",
" . .X.$.$.| (  .=. .=. .;./.[.[.[.[.[.[.E.A.< ; ; ; ; ; ; ; ; ; ; ; ; ; ; ; 4 5.7.q.k.l.t.@..... . .^ ~ ~ X.o.o. . . .( ( ^ ~ ~ ",
" . . . . .^ ^ ^ =.-.=. .;./.[.[.[.[.[.[.).A.< ; ; ; ; ; ; ; ; ; ; ; ; ; ; ; ; > 3 7.k.c.t.J.J.J.|  ./ ~ ~ O.J.J.X.(  . . .^ ~ ~ ",
"|  . . . .^ ~ ~ =.-.=. .-.~./._././.^._.T.Z < ; ; ; ; ; ; ; ; ; ; ; ; ; ; ; ; ; 3 5.i.s.G.@.J.&.|  .| ^ ~ O.J.#.X.|  . . .^ ~ ~ ",
" . . . . .^ ~ ^ -.-.=./ =.<.2.<.<.<.2.2.,.Z < ; ; ; ; ; ; ; ; ; ; ; ; ; ; ; ; ; ; 4 6.7.C ` [ ] { ^ ^ ^ / ..X...(  . . .| ( / / ",
" . . . . .^ ~ ^ -.-.=. . . . . . . . . .^ j < ; ; ; ; ; ; ; ; ; ; ; ; ; ; ; ; ; ; ; ; ; w Q ! ! ~ ! ^  . . . .( ( ( (  . . .|  .",
" ./  . . .^ ~ ~ =.-.=. . .|  ./  . . ./ { x < ; ; ; ; ; ; ; ; ; ; : , , , , , , , , , , j ! ~ ^ ^ ! ^  . . . . . .(  . ... . .( ",
"~ ~ / =.-.( (  . . . . . .^ ~ ^  .-.-. .{ C < ; ; ; ; ; ; ; ; ; , 9 0 0 0 0 0 0 0 0 0 0 B { -.=. .^  . . . . ./ ^ ~ [ K.K... . .",
"~ ~ / -.-.=. . . . .(  . .^ ~ ~ -.-. . .{ x , ; ; ; ; ; ; ; ; ; , 0 r r r r r r r r r y S  .-.-. . . . . . . ./ ~ ~ [ J.J... . .",
"^ ^ /  .( =. .=. . . . ./ ^ ~ ^ -.-. . .{ B 7 < 1 1 < 1 1 1 1 1 8 0 r r r r r r r r r y S ( -.-. .|  . . ./ ^ ^ ^ / | O.O.X. . .",
" . .^ ^ ~ =.-.-. . . . . .^ ! ^ -.-.-. .{ S q e 0 0 0 q 0 e 0 e 0 r r r r r r r r r r r S  .-.-. . . . .( ^ ^ ~ -.-. .~ ~ -.-.-.",
" . .^ ~ ^  .-.-. . . . . .^ ! ~ -.-.-. .| H c t r r r r r r r r r r r r r r r r r r r r S | -.-. . . . . .^ ~ ^ -.-.( ~ ~  .-.-.",
"/  .( | / ^ ^ ^ -.-. . . ./ / / ^ ^  .=.X.H c y r r r r r r r r y Z A Z Z V A A Z V Z V G { { / =.=.=. .( ^ ! ^ -.-.=.~ ~ ( -.-.",
" . . . . .^ ~ ~ -.-. . . . . .| ^ ! / -. .K c y r r r r r r r r C K K G K ' { [ ' ' ` ` { ~ ! ~ -.-.-. . .^ ~ ~ -.-. .^ ^ ( -.-.",
" . .| | | { ^ ^  .-.-. . . . .( ~ ~ / -.=.K C c c c c c y c c c C Q / ~ ^  .=.-. .( ( (  .^ ] {  .-. .(  .^ ~ ^ =.-.( ~ ^ -.-.-.",
" .( ..&.K...( (  . . .-.-.-. ./ ^ ! ^ -.-.' F V D V D J J J D D S Q / -.=.=.(  .(  . . . .$.J.O.~ ~ ^  . .~ ~ ^ =.-.-.( (  . . .",
" . .$.J.J... . . . . .-.-. . . .~ ! / -.-.=. . .~ ~ ^ -.-. .| | ~ ! ^ -.-. .=.(  . . . . .$.J.#.] ! ^  . .^ ~ ^ -.-.-. . . . .( ",
" . ...O.O.| ^ (  . .-.-.-. . .| ^ ^ /  . . .=. .^ ^ / -.-.=. .| ^ ^ / =.( / / /  . . .|  .$.$.$.| ^ |  . .^ ~ ~ o.o.X. . . . . .",
" . .{ ~ ~ ~ ~ ^ -.-.-.(  . . .(  . ./ ~ ^  .-.-. .| =.-.-. . . ./ ( / ~ ^ ~ ! ^ -.-.-. . . . . .|  . . .| ^ ~ ~ #.J.$.(  . . . .",
" . .^ ~ ~ ~ ~ ^ -.-.-. . . . . . . ./ ! ^ ( -.-. .| =.-.-. . . . . ./ ~ ~ ~ ~ ^ -.-.-. . . . . . . . . . .^ ! ] #.J.&. . . . . .",
" . . .^ ^ ^ | ^ / ^ / -.-. .-. . . ./ / / / =.=. . . .=.=. .(  . . ./ / / ^ / ^ ^ ^ ( -.-. . .(  . .|  . .^ ~ ~ o.o.X. .| (  . .",
" . . . . . . ./ ~ ~ / -.-.-.-.-.=.(  . ./  . .|  . .| (  . . . . .|  .|  . .(  .~ ~ ( -.-. . .|  . .(  . .^ ~ ~ -.-. . .( |  . .",
" . . . . . . . .~ ~ ( -.-.-.-.-.( |  . . . . . . . . . . . . . . .(  . . . . ./ ^ ~ ( -.-. . . . . . . .( ^ ~ ^ -.-.-. . . . . ."
};
