/* XPM */
static char *result[] = {
/* columns rows colors chars-per-pixel */
"64 64 111 2 ",
"   c #011106",
".  c #03150A",
"X  c #0B1A0D",
"o  c #021F13",
"O  c #101E11",
"+  c #022417",
"@  c #132213",
"#  c #1D2816",
"$  c #122419",
"%  c #14311F",
"&  c #033223",
"*  c #023728",
"=  c #343B24",
"-  c #393E26",
";  c #034E3C",
":  c #3F4228",
">  c #035643",
",  c #03654F",
"<  c #016F59",
"1  c #00735D",
"2  c #306C50",
"3  c #017B63",
"4  c #087A63",
"5  c #107C6A",
"6  c #697249",
"7  c #6C7A73",
"8  c #717D72",
"9  c #82713F",
"0  c #8A7642",
"q  c #8B7842",
"w  c #8E7E4A",
"e  c #907E49",
"r  c #01836A",
"t  c #00896F",
"y  c #1F8266",
"u  c #008C72",
"i  c #009176",
"p  c #01957A",
"a  c #05987E",
"s  c #77837E",
"d  c #7C867F",
"f  c #96844D",
"g  c #9A874F",
"h  c #8A8A5A",
"j  c #A38D53",
"k  c #A69156",
"l  c #BD9D57",
"z  c #BB9D58",
"x  c #C2A15B",
"c  c #CDA75B",
"v  c #CFA85B",
"b  c #D4AC5D",
"n  c #D8AF5F",
"m  c #D9B05F",
"M  c #CFA960",
"N  c #CFAC6A",
"B  c #D4AD62",
"V  c #D1AE6B",
"C  c #D7B064",
"Z  c #DCB261",
"A  c #D7B26C",
"S  c #DBB46B",
"D  c #DEB86F",
"F  c #CFAF75",
"G  c #D0AF73",
"H  c #CFB27E",
"J  c #D3B275",
"K  c #DEB870",
"L  c #D3B379",
"P  c #E2B763",
"I  c #E5B964",
"U  c #E3B968",
"Y  c #03A185",
"T  c #0FAA92",
"R  c #01B393",
"E  c #01C8A5",
"W  c #06CCAA",
"Q  c #06D5B2",
"!  c #01DCB6",
"~  c #01DEB8",
"^  c #14D1B6",
"/  c #1AD3BC",
"(  c #01E1BA",
")  c #17DDC3",
"_  c #1ADFC6",
"`  c #04F5CD",
"'  c #10F9D7",
"]  c #1BF4DC",
"[  c #39ECD0",
"{  c #1DFDE3",
"}  c #20FFE6",
"|  c #2AFFE8",
" . c #47FCE7",
".. c #45FFEB",
"X. c #52FEEB",
"o. c #75FFFE",
"O. c #B2BAB3",
"+. c #CFB384",
"@. c #D1B380",
"#. c #96FFFF",
"$. c #9AFFFF",
"%. c #A4FFFF",
"&. c #ABFFFF",
"*. c #CED3D1",
"=. c #D2FFFF",
"-. c #DAFFFF",
";. c #EDEFEE",
":. c #E4FFFF",
">. c #EBFFFF",
",. c #F5FEFE",
"<. c #FEFFFF",
/* pixels */
"v v v v v m I I I I Z Z Z Z Z Z v c b I I I I I m Z Z Z Z Z Z Z Z Z Z Z Z Z Z C v v b I I P Z Z Z Z b v v m I I Z Z b b v Z I I ",
"v v v v b m I I I I I m Z Z Z n b c n I I I I I Z Z Z Z Z Z Z Z Z m Z Z Z Z Z n b v n I I Z Z Z Z Z b v b Z I I Z Z b v v m I I ",
"b b b b b S D D I Z Z I Z I Z Z b b n Z P Z P m Z P Z n B Z P Z A J Z B n Z Z Z b b m Z P P P Z Z Z Z b b m m m I Z m v v A U K ",
"Z Z Z Z m L +.H b v m I I I I I Z Z n v v v v b I I m b v P I U L +.F c c P I I Z Z b v v m I I Z Z Z Z m b b b I I Z b v L +.@.",
"C m m Z Z L +.+.v v m I I I I I Z Z b v v v c b I I Z b c m I I @.+.F b b Z I I Z Z n v b Z I I Z Z m m Z b v b I I m b v F +.+.",
"b b m I I S A S C n m Z Z Z m m P P Z n b V F J Z Z m c v P I I S A B b b b n m Z P Z m b Z P Z Z Z A L L C n B b m m Z Z S A A ",
"v v b I I Z m Z Z Z Z Z C b v b I I P Z Z L +.H Z S b c v P I I Z Z Z Z n b v b I I Z Z Z Z m Z Z Z A +.+.A Z Z b c b I I I Z Z ",
"v v b I I Z Z Z Z Z Z Z m b v b P I P Z Z J +.+.Z Z n b v m I I Z Z Z m m b c b I I I Z Z Z C Z b Z A @.@.S Z Z b v b I I Z Z Z ",
"v v m I I I Z Z I I Z Z Z Z Z m Z Z Z Z Z Z Z Z Z Z n v b Z I I Z Z Z Z Z b v v I I P Z Z b v v v b Z I U I I I m m n b v Z I I ",
"v v m I I Z Z Z I I I m Z Z Z Z Z Z Z Z Z Z Z Z Z Z b v c P I I Z Z Z Z Z b v b P I P Z Z b v v v v b I I I I I Z m b v v Z I I ",
"v v b I I Z b m Z Z Z I Z m b C Z Z Z Z Z C b b Z Z m b b m m Z Z P Z P P b b b P P Z Z Z b b b b b b Z Z Z Z Z I Z Z n m Z I I ",
"v v n I I n v v v v m I I b v b I I P Z Z b v b I I I m m b c b I I I I I Z Z Z Z Z Z Z Z Z m m C Z n v v b v b I I I I I Z Z m ",
"v v b I I n v v c b Z I I m v b I I I Z Z b v b I I I Z Z b c b U I I I I P Z Z Z Z Z Z Z C Z C Z Z b v v v v v I I I I I Z Z Z ",
"v v m I I Z b m b b A L L S b b b b m I P Z b b n n Z Z I m b m P Z Z b m Z P P Z Z Z Z Z b b b Z I Z n n b n n Z I Z Z I Z Z Z ",
"c c n I I I Z Z Z m A +.+.S m m v v m I I Z Z Z v c b I I P Z Z Z Z b v v Z I I Z Z Z m m b v b I I I Z Z Z Z Z Z Z Z Z Z m Z Z ",
"v b n I I Z Z Z Z m A @.@.S Z m v b b I I P Z m v b m I I Z Z Z Z Z b b b Z I I Z Z Z Z Z b v b Z I P Z Z Z Z Z n Z Z Z Z Z Z Z ",
"v v m I I Z m Z Z Z Z C S m Z n v v b I I Z Z m v c b I I P Z Z Z Z Z Z n Z Z Z Z Z Z Z Z Z Z m b b b I I Z Z Z b c m I I P Z Z ",
"v v m I I P Z Z Z Z Z Z Z m Z Z v v n I I Z Z m b c n I I Z Z Z Z Z Z Z m Z Z Z Z Z Z Z Z Z Z m v v b I I I Z Z v c m I I Z Z Z ",
"N N B m P Z P Z Z Z Z m Z n n n n n C I I Z Z Z b b n m P P P Z Z Z C A A C Z Z m m m Z Z Z Z Z b b m I Z Z Z Z v v n I I Z Z Z ",
"+.+.F v v P I I Z Z Z m Z b v v I I I n Z Z Z Z Z m n c v m I I Z Z A +.+.A Z m v v m I I Z Z Z Z Z Z Z Z Z Z m v v b I I Z Z Z ",
"+.+.F v v P I I Z Z Z C Z b v b I I Z Z Z Z Z Z Z Z B b c P I I Z m A +.+.A Z Z v v n I I m Z Z Z Z Z Z Z Z Z m b v m I I Z Z Z ",
"A A B v v m I I b b n I Z m n n n n Z I I Z Z I Z Z m v b Z I I Z Z C A A C Z Z Z b b n m I I Z b b n I P Z Z Z v v m I I I Z Z ",
"m Z b b b m I I b v n I I Z Z m v v n I I I I I Z Z B c       .   . o m Z Z Z Z Z Z C v v m I I v c b I I Z Z Z v v b I I P Z Z ",
"Z Z n v c P I P b v n I I I Z m b v n Z I I I I Z Z B c $ $ $ $ $ $ % Z Z Z Z Z Z m n v b m I I b v b I I Z Z Z b v C U U Z Z Z ",
"Z Z b v v m I I m m I I I Z Z Z m m n b b v b b P I O . <.<.<.<.<.<.<.  = I I P Z Z n v v Z I I Z n n b b I I I Z n A @.@.K I I ",
"Z Z b v b m I I m Z I I I I Z Z Z Z n c v c c v j e d s =.=.=.=.=.,.,.1 y w x I Z m n v v Z I I Z Z b v v Z I I Z m A +.@.K I I ",
"Z Z Z b b S K K Z Z m Z Z Z Z Z m m n b b b b b =   ,.<.#.#.#.$.#.:.:.` Q   q m Z I m n m m m m Z Z m b b n m Z Z I S L L S I U ",
"Z Z Z Z S L +.@.S Z n v v I I I Z C Z Z Z Z j = O.*.>.>.#.#.#.=.>.....{ )   9 b I I I I I n b b I I I m m b v v I I Z Z m Z Z m ",
"C m Z Z Z L @.@.Z Z C c v m I I Z Z Z Z Z Z f   *.<.:.:.#.#.#.-.<.} } } _   9 b I I I I I n v b I I I m Z b v b I I I Z Z Z Z Z ",
"Z Z b b b S K U Z Z Z b n Z I Z Z Z Z Z Z b w   *.<.$.#.<.<.:.:.:.:.:.{ { ` 4 . x C n b n V G G C n n I I Z n n Z Z m b b Z I I ",
"Z Z b c c m I I Z Z Z Z Z m Z m Z Z Z Z Z c h % *.,.%.%.>.>.-.-.-.-.-.] ] ` 4   z v v v v F +.+.v v n I I Z Z Z Z Z m v b Z I I ",
"Z Z b b v m I I Z Z C Z S m Z Z m m Z Z x   7 <.&.#.<.<.o.o.o.o.o.o.o.i Y } 5   z v v v v G H H M v b I I Z Z Z Z Z b v v m I I ",
"Z Z n v v I I I Z Z A H @.A Z m b b Z I b   7 <.&.#.,.,.o.o.o.o.o.o.o.i Y } T , h k Z m m Z C Z C Z b b b m I I Z Z n v v I I I ",
"Z Z b v v Z I I Z Z A +.+.A Z Z c v b I B   7 <.&.#.:.>.o.o.o.o.o.o.o.i Y } ' ` & X C m Z Z Z Z Z Z b v b Z I I m Z n v v m I I ",
"Z Z m b b m Z Z Z I S G F S Z Z b b n Z c   7 <.-.=.[ [ o.o.o.o.o.o.o.i u a i u + X Z Z Z Z Z Z Z Z C b b m Z m I Z m v v S D D ",
"Z Z Z Z m b v b I I m v b Z I I Z Z b v z   7 <.>.>.( ( o.o.o.o.o.o.o.i u < < 1 + X I I I I Z Z m Z Z Z m b v b I I Z v v F +.+.",
"Z Z Z Z Z v v v I I Z b v Z I I Z Z b b l   7 <.X.| { } a Y a a a Y a ! ~ ! R i + X I I I Z Z Z Z Z m Z Z b v b I I m v v G +.+.",
"Z Z Z Z Z b v b Z I I n b b n m Z I m c l @ 8 ;. .{ ] ] p p p p p p p ! ! ( R u % # b b n Z Z Z b b n I I m n m Z I m v v S D D ",
"Z Z C m Z b c v I I Z m Z b v v I I Z b c Z f   / } 3 < ( ( ( ( ( ~ ( < r ( <   z c v c v b Z m v v b I I Z Z Z m Z n v b m I I ",
"Z Z Z C C n v b I I I Z Z b v b I I m v b Z g   ^ ] 3 < ( ( ( ( ( ( ( < 3 E ,   z v v b b m Z m v v n U I Z Z Z Z Z b v b m I I ",
"Z m A +.H D I Z Z Z Z Z Z b v v I I P m m b e   W ` 1 1 ( ( ( ( ( ( ( < 3 i ;   z v B I I Z Z Z m n n v n Z I I Z Z Z n m b b v ",
"Z Z A +.+.K I I Z Z Z Z Z b c b I I I m Z b x j 2 > t t ( ( ( ( ( ( ~ t 3 * 6 j c v b I I P m Z Z Z n v v m I I Z Z Z Z Z b v v ",
"Z Z A J J C Z I Z Z Z Z Z b b b m m m P Z b v b :   i p ( ( ( ( ( ( ( i 3 . 0 m v c n I I S A A Z Z n v v S K D Z m Z Z Z b v v ",
"Z Z m m Z b v b I I I Z Z Z Z Z b b m I I b c b I I @ . . . . . . . . . = Z Z Z b b n I I L +.H C Z n v v G +.@.S m Z Z Z b v v ",
"Z Z Z Z Z b c b I I Z Z Z Z Z m b v b I I b v b I I $ . . . . . . o .   - Z Z m c c n I I L +.H S n n v v F +.H S Z Z Z Z v v v ",
"Z Z Z Z Z b v v I I I m m Z Z C b b Z Z P m b m Z Z Z Z Z n C Z I I P Z Z Z Z Z b v b I I Z N N b b b n C C A A m Z Z Z Z n n n ",
"Z Z Z Z Z b v b P I P C Z Z Z Z Z Z Z Z Z Z Z Z Z Z Z Z Z Z Z Z I I P Z Z Z Z m c c b I I b c c v v b C Z Z Z m m m m m Z Z Z Z ",
"Z b Z Z Z n v v P I P Z Z Z Z Z Z Z Z Z Z S Z Z Z Z Z Z Z Z Z Z P I P Z Z Z C n b c n I I Z b b b v b m Z Z Z Z Z m S C C Z Z Z ",
"v v Z I I Z m m Z Z Z Z Z b v b Z I I Z Z J +.L S Z Z Z Z J +.H v b m I I Z Z Z m m b b n Z I Z Z Z Z Z Z Z Z Z v v V H +.A m Z ",
"c c b I I Z Z Z Z Z Z Z Z v v b I I Z Z Z L +.+.Z m Z Z m L +.H M v n I I I Z Z Z m n v v Z I I Z m C Z Z Z Z n v c V +.+.A m Z ",
"b b b Z Z I Z Z Z Z Z Z Z b v v I I Z Z Z A F F Z I Z Z Z J J F C b C D D S Z Z Z Z n v v Z I I Z Z m m Z m n n n b C F F S Z Z ",
"Z Z m v b Z I I Z Z Z Z Z b v b I I I Z Z b v v I I Z Z Z Z Z Z m m A +.@.D I I Z Z m v b Z I I Z Z Z Z m b v v I I Z v v I I I ",
"Z Z b v v Z I I Z Z Z Z Z b c v I I Z Z Z b v b I I Z Z Z Z Z Z Z m A +.+.D I I Z Z n v c Z I I Z Z Z Z Z b v b I I m v v Z I I ",
"Z Z Z b Z b n m I I Z Z Z b n m n n Z I Z m n m I I I Z Z Z Z Z Z Z Z V C S I I Z Z m n b n m m Z I Z Z Z b v b I I I v v m I I ",
"Z Z Z Z Z v c v I I Z Z Z Z Z Z v v m I I I Z Z I I I Z Z Z Z Z Z Z C c v m I I Z Z Z Z Z b c v I I Z Z Z v v v I I m b v Z I I ",
"Z Z C Z C C v b Z I Z Z Z Z Z Z v v n I I Z Z Z Z I Z Z Z Z Z Z m n n v n Z I Z Z Z Z Z Z M M b I I I m Z b v b I I m b b I I I ",
"Z m A +.+.A n Z Z Z Z I I Z Z Z v v n I I Z Z m b v n I I Z Z m v v n I Z Z Z Z Z Z Z Z Z F @.H b v b Z Z b v v m I I Z m Z Z Z ",
"Z m A +.+.A Z Z Z Z I I I Z Z Z v c n I I Z Z m v v n I I Z Z m v v n I I I Z Z Z Z Z Z Z J +.H M c b Z Z b v b I I Z Z Z Z Z Z ",
"Z Z C F G C b n Z I Z Z I Z Z Z b b n Z I Z I Z n b m I I I C m n b b Z Z n n n Z I Z Z Z J J J M b b Z Z b v b D K D Z Z Z Z Z ",
"Z Z C v v c v b I I I Z Z Z Z Z Z m n v v Z I I Z Z I I I Z Z Z Z Z n v v v v b I I Z Z Z Z Z Z Z Z Z Z C b v M L +.J Z Z Z Z Z ",
"Z Z n c v v v v I I Z Z Z Z Z Z Z Z n v b Z I I Z Z Z I I I Z Z Z Z n v v v v b Z I I Z Z Z m Z Z Z Z Z Z b c v H +.F Z Z Z Z C ",
"Z Z n n n b n n n n Z I Z I I Z Z Z m n n Z Z Z Z Z Z Z Z m Z Z Z Z m n n n b n n m m I Z Z Z m Z Z C Z Z b c v D K S Z Z Z m m ",
"Z Z Z Z Z Z Z n v v n I I I I I Z Z Z Z Z Z Z Z Z Z Z Z Z Z Z m Z Z Z Z Z Z Z m c c m I I Z Z C Z Z Z m Z b v b I I I Z Z Z Z Z ",
"C Z Z Z Z Z Z Z v v Z I I I I I Z m C Z Z Z Z Z Z Z Z Z Z Z Z C Z Z m m C Z Z Z b v m I I I Z Z Z Z Z Z m b v v I I Z Z Z Z Z Z "
};
