/* XPM */
static char *_fdd9648eb444e65960b22abd1de016a23Rq8hxKzhksOtBC[] = {
/* columns rows colors chars-per-pixel */
"44 48 10 1 ",
"  c None",
". c black",
"X c #38002C",
"o c #222A5C",
"O c #158968",
"+ c #663B93",
"@ c #566A89",
"# c #5BECF1",
"$ c #8BABBF",
"% c #FFDBA5",
/* pixels */
"                                            ",
"                                            ",
"                                            ",
"                                            ",
"                                            ",
"                                            ",
"                                            ",
"                                            ",
"                                            ",
"                                            ",
"                                            ",
"                                            ",
"                                            ",
"                    ..                      ",
"                    .O.                     ",
"               .......O.                    ",
"               .OOOOOOOO.                   ",
"                .OOOOOOO.                   ",
"                .OO%%%%.                    ",
"                .O%.++..                    ",
"                 .%.++..                    ",
"                ..%%%%%..                   ",
"               .$$@%%%%$@.                  ",
"              .$$$$$$$$$$@.                 ",
"              .$$@$$$##$$@.                 ",
"             .@@@o@$$##$@o.                 ",
"            .@@..oo@@##@o.                  ",
"           .$$. .o@@oooo@.                  ",
"           .$$. .o@@@@o@@.                  ",
"           .@.   .o@@@o@o.                  ",
"          .@.    .ooooooo.                  ",
"          .@.     .oooo.o.                  ",
"         .$...     .XX...o.                 ",
"         .$$$.    ..XX...o.                 ",
"         .$$.    .$$@@@@@o.                 ",
"          .$.   .$$$@@@ooo.                 ",
"           ..   .$$@@@oooo.                 ",
"                .@@@o..ooo.                 ",
"                .@@@. .ooo.                 ",
"                .@@@. .ooo.                 ",
"                .$$$.  .ooo.                ",
"                .$$.   .ooo.                ",
"                .@@.   .ooo.                ",
"               .ooo.   .ooo.                ",
"               .ooo.    .oo.                ",
"               .oo.     .oo.                ",
"               .XX.     .....               ",
"               .XX.     .....               "
};
