/* XPM */
static char *result[] = {
/* columns rows colors chars-per-pixel */
"64 64 147 2 ",
"   c #CEA75A",
".  c #CFA75A",
"X  c #CEA75B",
"o  c #CFA85A",
"O  c #CEA85B",
"+  c #CFA85B",
"@  c #D0A95B",
"#  c #D0A95C",
"$  c #D1A95C",
"%  c #D1AA5C",
"&  c #D1AA5D",
"*  c #D2AA5C",
"=  c #D3AB5D",
"-  c #D3AC5D",
";  c #D4AC5E",
":  c #D5AD5E",
">  c #D4AC5F",
",  c #D7AE5E",
"<  c #D6AE5F",
"1  c #D7AE5F",
"2  c #D8AF5F",
"3  c #D9B05F",
"4  c #DAB05F",
"5  c #CFA960",
"6  c #C7A96E",
"7  c #CFAC6A",
"8  c #CBAC6F",
"9  c #CDAE6F",
"0  c #D3AC60",
"q  c #D7AF61",
"w  c #D4AF66",
"e  c #D4AF67",
"r  c #D0AD69",
"t  c #D8B060",
"y  c #D9B060",
"u  c #D9B160",
"i  c #DAB160",
"p  c #DBB160",
"a  c #DAB161",
"s  c #DBB260",
"d  c #DBB261",
"f  c #DAB162",
"g  c #DAB262",
"h  c #DDB360",
"j  c #DCB261",
"k  c #DCB361",
"l  c #DDB361",
"z  c #DDB461",
"x  c #DEB460",
"c  c #DEB461",
"v  c #DEB462",
"b  c #DFB462",
"n  c #DFB562",
"m  c #DEB463",
"M  c #DEB563",
"N  c #DAB265",
"B  c #DFB564",
"V  c #D6B068",
"C  c #D7B168",
"Z  c #D6B26B",
"A  c #D7B26C",
"S  c #D7B26D",
"D  c #D7B26E",
"F  c #D7B36E",
"G  c #D9B268",
"H  c #D8B269",
"J  c #D9B369",
"K  c #DAB369",
"L  c #DBB46A",
"P  c #DDB66A",
"I  c #D8B36C",
"U  c #DCB66D",
"Y  c #DEB76E",
"T  c #DEB86F",
"R  c #CFAF75",
"E  c #CFB27F",
"W  c #D1B273",
"Q  c #D5B473",
"!  c #D3B274",
"~  c #D3B377",
"^  c #D7B574",
"/  c #DEB870",
"(  c #DAB875",
")  c #DBB875",
"_  c #D3B378",
"`  c #E0B662",
"'  c #E1B662",
"]  c #E1B763",
"[  c #E2B763",
"{  c #E3B863",
"}  c #E4B862",
"|  c #E4B863",
" . c #E5B963",
".. c #E6BA63",
"X. c #E5B964",
"o. c #E6BA64",
"O. c #E7BA64",
"+. c #E7BB64",
"@. c #9A2EFF",
"#. c #9D2EFF",
"$. c #9130FF",
"%. c #9430FF",
"&. c #A52CFF",
"*. c #B02AFF",
"=. c #B928FF",
"-. c #BC28FF",
";. c #C526FF",
":. c #9448E9",
">. c #984CED",
",. c #B443EA",
"<. c #BC41E9",
"1. c #BD42EA",
"2. c #C045ED",
"3. c gray62",
"4. c #A9A08F",
"5. c #AAA18F",
"6. c #ABA290",
"7. c #ACA290",
"8. c #ACA391",
"9. c #ADA391",
"0. c #ADA491",
"q. c #AFA693",
"w. c #B5AC9A",
"e. c #B8AF9D",
"r. c #B9AF9E",
"t. c #B9B09E",
"y. c #BAB19E",
"u. c #BBB19F",
"i. c #BBB29F",
"p. c #BCB29F",
"a. c #A783B4",
"s. c #A88CB2",
"d. c #A98DB3",
"f. c #B095BB",
"g. c #B397BD",
"h. c #A2A2A2",
"j. c #ACACAC",
"k. c #B9B0A0",
"l. c #B9B1A1",
"z. c gray69",
"x. c #C7AE80",
"c. c #C4AE8B",
"v. c #CFB280",
"b. c #CFB384",
"n. c #CFB385",
"m. c #D0B380",
"M. c #B591C1",
/* pixels */
"+ + + + + c o.o.o.o.[ d d d d i # + , o.o.o.o.X.k d d d d d d d d d d d d d d i # + , o.o.n d d d d 1 + + c o.X.k d 1 + + c o.o.",
"+ + + + + x O.o.o.O.[ d d d d u # X , o.o.o.o.X.k d d d d d d d s s d d d d d u # X , o.o.n d d d d 1 + + c +.X.k d 1 + + x O...",
"- - - - - K / Y m c c n n n n z : = , c c c c c n n k 1 1 k n M I D C 1 1 k n z : = , c c b n v d d t - - i c c n n y + + G / T ",
"d d d d d ~ n.E 5 + , o.o.o.o.X.k W z.z.z.3.3.3.3.z.z.z.h.3.3.3.3.3.3.3.3.3.3.z.z.z.z.z.z.z.( X.k d d d d - + * { O.c + + R n.b.",
"d d d d d _ n.E 5 + , o.o.o.o.X.k W z.z.z.3.3.3.3.z.z.z.h.3.3.3.3.3.3.3.3.3.3.z.z.z.z.z.z.z.( X.k d d d d - + * { o.c + + R n.b.",
"- = 3 [ [ L D A q 1 i n n i , 2 ' ^ z.z.z.3.3.3.3.z.z.z.h.3.3.3.3.3.3.3.3.3.3.z.z.z.z.z.z.z.Q v d d H ~ ~ V , 1 , , 4 c c J D S ",
"+ O , o.o.n s s d d d d d = X % { ) z.z.z.3.3.3.3.z.z.z.h.3.3.3.3.3.3.3.3.3.3.z.z.z.z.z.z.z.W d d s D n.n.D d i # X , o.O.n s s ",
"+ + , o.o.n d d k k y.z.z.z.3.3.3.3.3.3.3.;.;.;.;.;.;.;.;.;.;.;.;.;.;.;.;.;.;.;.;.;.;.z.z.z.h.3.3.3.z.z.z.l.l d * # , { { n k k ",
"+ + , o.o.n d k | X.u.z.z.z.3.3.3.3.3.3.3.;.;.;.;.;.;.;.;.;.;.;.;.;.;.;.;.;.;.;.;.;.;.z.z.z.h.3.3.3.z.z.z.i.X.{ d i 1 * * c X.X.",
"+ + , o.o.n d l X.+.u.z.z.z.3.3.3.3.3.3.3.;.;.;.;.;.;.;.;.;.;.;.;.;.;.;.;.;.;.;.;.;.;.z.z.z.h.3.3.3.z.z.z.p.O.X.k d < O + c +.o.",
"+ + , o.o.k < 2 l c y.z.z.z.<.<.<.<.<.<.<.;.;.;.;.#.#.#.#.#.#.#.#.#.#.#.#.#.#.;.;.;.;.2.2.2.1.<.<.<.h.h.h.q.c c n n k , , c [ [ ",
"+ + , o.o., + + + + r.z.z.z.;.;.;.;.;.;.;.;.;.;.;.$.$.$.$.$.$.$.$.$.$.$.$.$.$.;.;.;.;.;.;.;.;.;.;.;.3.3.3.4.+ * { o.o.o.o.n d d ",
"+ + , o.o., + + + + r.z.z.z.;.;.;.;.;.;.;.;.;.;.;.$.$.$.$.$.$.$.$.$.$.$.$.$.$.;.;.;.;.;.;.;.;.;.;.;.3.3.3.4.+ * { o.o.o.o.n d d ",
"+ + , o.o.k < 1 1 , k.z.z.z.;.;.;.;.;.;.;.;.;.;.;.$.$.$.$.$.$.$.$.$.$.$.$.$.$.;.;.;.;.;.;.;.;.;.;.;.3.3.3.6.1 2 v n n n n k d d ",
"+ + , o.o.n d z.z.z.h.3.3.3.;.;.;.=.$.$.$.$.$.$.$.$.$.$.=.;.;.;.;.;.;.=.$.$.$.$.$.$.$.$.$.$.=.;.;.;.3.3.3.h.z.z.z.d d d d d d d ",
"+ + , o.o.n d z.z.z.h.3.3.3.;.;.;.=.$.$.$.$.$.$.$.$.$.$.=.;.;.;.;.;.;.=.$.$.$.$.$.$.$.$.$.$.=.;.;.;.3.3.3.h.z.z.z.u d k k d d d ",
"+ + , o.o.n d z.z.z.h.3.3.3.;.;.;.=.$.$.$.$.$.$.$.$.$.$.=.;.;.;.;.;.;.=.$.$.$.$.$.$.$.$.$.$.=.;.;.;.3.3.3.h.z.z.z.# 2 X.X.v d d ",
"o . , o.o.n d j.j.j.s.a.a.a.;.;.;.=.$.$.$.#.#.#.#.#.#.#.-.;.;.;.;.;.;.-.#.#.#.#.#.#.#.$.$.$.*.=.=.=.a.a.a.d.z.z.z.O , o.o.n d d ",
"7 7 w c c b n 3.3.3.<.;.;.;.;.;.;.=.$.$.$.;.;.;.;.;.;.;.;.;.;.;.;.;.;.;.;.;.;.;.;.;.;.$.$.$.$.$.$.$.;.;.;.2.z.z.z.+ , o.o.n d d ",
"b.n.R + + c o.3.3.3.<.;.;.;.;.;.;.=.$.$.$.;.;.;.;.;.;.;.;.;.;.;.;.;.;.;.;.;.;.;.;.;.;.$.$.$.$.$.$.$.;.;.;.2.z.z.z.+ , o.o.n d d ",
"b.n.R + + c o.3.3.3.<.;.;.;.;.;.;.=.$.$.$.;.;.;.;.;.;.;.;.;.;.;.;.;.;.;.;.;.;.;.;.;.;.$.$.$.$.$.$.$.;.;.;.2.z.z.z.+ , o.o.n d d ",
"S F e z.z.z.z.3.3.3.<.;.;.;.$.$.$.$.$.$.$.;.;.;.;.;.;.;.;.;.;.;.;.;.;.;.;.;.;.;.;.;.;.;.;.;.#.$.$.$.;.;.;.<.3.3.3.z.z.z.z.n d d ",
"s s , z.z.z.z.3.3.3.<.;.;.;.$.$.$.$.$.$.$.;.;.;.;.;.;.;.;.;.;.;.;.;.;.;.;.;.;.;.;.;.;.;.;.;.#.$.$.$.;.;.;.<.3.3.3.z.z.z.z.n d d ",
"d d 1 z.z.z.z.3.3.3.<.;.;.;.$.$.$.$.$.$.$.;.;.;.;.;.;.;.;.;.;.;.;.;.;.;.;.;.;.;.;.;.;.;.;.;.#.$.$.$.;.;.;.<.3.3.3.z.z.z.z.B k k ",
"d d 1 z.z.z.z.3.3.3.<.;.;.;.$.$.$.$.$.$.$.;.;.;.;.;.;.;.;.;.;.;.;.;.;.;.;.;.;.;.;.;.;.;.;.;.#.$.$.$.;.;.;.<.3.3.3.z.z.z.z.Y  .X.",
"d d 1 z.z.z.z.;.;.;.;.;.;.;.$.$.$.#.;.;.;.;.;.;.;.;.;.;.;.;.;.;.;.;.;.;.;.;.;.;.;.;.;.;.;.;.#.$.$.$.$.$.$.#.;.;.;.3.3.3.3./ O.o.",
"d d t z.z.z.z.;.;.;.;.;.;.;.$.$.$.#.;.;.;.;.;.;.;.;.;.;.;.;.;.;.;.;.;.;.;.;.;.;.;.;.;.;.;.;.#.$.$.$.$.$.$.#.;.;.;.3.3.3.3.P [ [ ",
"d d d z.z.z.z.;.;.;.;.;.;.;.$.$.$.#.;.;.;.;.;.;.;.;.;.;.;.;.;.;.;.;.;.;.;.;.;.;.;.;.;.;.;.;.#.$.$.$.$.$.$.#.;.;.;.3.3.3.3.d d d ",
"d d d h.h.h.h.;.;.;.;.;.;.;.$.$.$.#.;.;.;.;.;.;.;.;.;.;.&.#.#.#.#.#.#.#.#.#.#.;.;.;.;.;.;.;.-.=.=.=.$.$.$.#.;.;.;.3.3.3.3.d d d ",
"d d t 3.3.3.3.;.;.;.;.;.;.;.$.$.$.#.;.;.;.;.;.;.;.;.;.;.#.$.$.$.$.$.$.$.$.$.$.;.;.;.;.;.;.;.;.;.;.;.$.$.$.#.;.;.;.3.3.3.3.l [ [ ",
"d d 1 3.3.3.3.;.;.;.;.;.;.;.$.$.$.#.;.;.;.;.;.;.;.;.;.;.#.$.$.$.$.$.$.$.$.$.$.;.;.;.;.;.;.;.;.;.;.;.$.$.$.#.;.;.;.3.3.3.3.c O.o.",
"d d 1 3.3.3.3.;.;.;.;.;.;.;.$.$.$.#.;.;.;.;.;.;.;.;.;.;.#.$.$.$.$.$.$.$.$.$.$.;.;.;.;.;.;.;.;.;.;.;.$.$.$.#.;.;.;.3.3.3.3.c o.o.",
"d d 1 3.3.3.3.;.;.;.;.;.;.;.$.$.$.$.$.$.$.;.;.;.;.;.;.;.#.$.$.$.;.;.;.=.$.$.$.;.;.;.;.;.;.;.;.;.;.;.$.$.$.#.;.;.;.z.z.z.z.c o.o.",
"d d 1 3.3.3.3.;.;.;.;.;.;.;.$.$.$.$.$.$.$.;.;.;.;.;.;.;.#.$.$.$.;.;.;.=.$.$.$.;.;.;.;.;.;.;.;.;.;.;.$.$.$.#.;.;.;.z.z.z.z.x O...",
"d d t 3.3.3.3.;.;.;.;.;.;.;.$.$.$.$.$.$.$.;.;.;.;.;.;.;.#.$.$.$.;.;.;.=.$.$.$.;.;.;.;.;.;.;.;.;.;.;.$.$.$.#.;.;.;.z.z.z.z.G / T ",
"d d d 3.3.3.3.;.;.;.;.;.;.;.#.#.#.@.$.$.$.;.;.;.;.;.;.;.&.#.#.#.;.;.;.=.$.$.$.;.;.;.;.;.;.;.;.;.;.;.$.$.$.#.;.;.;.z.z.z.z.R n.b.",
"d d d 3.3.3.3.;.;.;.;.;.;.;.;.;.;.=.$.$.$.;.;.;.;.;.;.;.;.;.;.;.;.;.;.=.$.$.$.;.;.;.;.;.;.;.;.;.;.;.$.$.$.#.;.;.;.z.z.z.z.R n.b.",
"d d d 3.3.3.3.;.;.;.;.;.;.;.;.;.;.=.$.$.$.;.;.;.;.;.;.;.;.;.;.;.;.;.;.=.$.$.$.;.;.;.;.;.;.;.;.;.;.;.$.$.$.#.;.;.;.z.z.z.z.G / T ",
"d d d 3.3.3.3.;.;.;.;.;.;.;.;.;.;.=.$.$.$.;.;.;.;.;.;.;.;.;.;.;.;.;.;.=.$.$.$.;.;.;.;.;.;.;.;.;.;.;.$.$.$.#.;.;.;.z.z.z.z.x +.O.",
"d d g z.z.z.z.z.z.z.2.;.;.;.;.;.;.=.$.$.$.$.$.$.$.;.;.;.;.;.;.;.$.$.$.$.$.$.$.;.;.;.;.;.;.;.#.$.$.$.$.$.$.:.3.3.3.3.3.3.3.h | { ",
"d s A z.z.z.z.z.z.z.2.;.;.;.;.;.;.=.$.$.$.$.$.$.$.;.;.;.;.;.;.;.$.$.$.$.$.$.$.;.;.;.;.;.;.;.#.$.$.$.$.$.$.:.3.3.3.3.3.3.3.: * * ",
"d s D z.z.z.z.z.z.z.2.;.;.;.;.;.;.=.$.$.$.$.$.$.$.;.;.;.;.;.;.;.$.$.$.$.$.$.$.;.;.;.;.;.;.;.#.$.$.$.$.$.$.:.3.3.3.3.3.3.3.= + + ",
"d d H z.z.z.z.z.z.z.2.;.;.;.;.;.;.=.$.$.$.$.$.$.$.;.;.;.;.;.;.;.$.$.$.$.$.$.$.;.;.;.;.;.;.;.#.$.$.$.$.$.$.:.3.3.3.3.3.3.3.- + + ",
"d d d d d - + z.z.z.2.;.;.;.;.;.;.;.;.;.;.$.$.$.$.$.$.$.$.$.$.$.$.$.$.#.;.;.;.;.;.;.;.;.;.;.#.$.$.$.;.;.;.<.3.3.3.d d d d - + + ",
"d d d d d - + z.z.z.2.;.;.;.;.;.;.;.;.;.;.$.$.$.$.$.$.$.$.$.$.$.$.$.$.#.;.;.;.;.;.;.;.;.;.;.#.$.$.$.;.;.;.<.3.3.3.d d d d - + + ",
"d d d d d - + z.z.z.2.;.;.;.;.;.;.;.;.;.;.$.$.$.$.$.$.$.$.$.$.$.$.$.$.#.;.;.;.;.;.;.;.;.;.;.#.$.$.$.;.;.;.<.3.3.3.d d d d t 1 1 ",
"d d d d d = + h.h.h.f.M.M.M.;.;.;.;.;.;.;.=.=.=.=.=.=.=.=.=.=.=.=.=.=.-.;.;.;.;.;.;.;.#.#.#.%.$.$.$.M.M.M.g.j.j.j.d d d d d d d ",
"i i d k k : # 3.3.3.j.z.z.z.;.;.;.;.;.;.;.;.;.;.;.;.;.;.;.;.;.;.;.;.;.;.;.;.;.;.;.;.;.$.$.$.$.$.$.$.z.z.z.z.z.z.z.i f N N g d d ",
"# # 2 X.X.z u 3.3.3.j.z.z.z.;.;.;.;.;.;.;.;.;.;.;.;.;.;.;.;.;.;.;.;.;.;.;.;.;.;.;.;.;.$.$.$.$.$.$.$.z.z.z.z.z.z.z.@ r m.m.A s d ",
"+ X , o.o.n d 3.3.3.j.z.z.z.;.;.;.;.;.;.;.;.;.;.;.;.;.;.;.;.;.;.;.;.;.;.;.;.;.;.;.;.;.$.$.$.$.$.$.$.z.z.z.z.z.z.z.  7 n.n.D s d ",
"- = , c c b n v d d 7.3.3.3.;.;.;.;.;.;.;.;.;.;.;.;.;.;.;.;.;.;.$.$.$.$.$.$.$.$.$.$.$.$.$.$.=.;.;.;.z.z.z.t.1 1 , , w R R J n n ",
"d d 1 + + c o.X.k d 7.3.3.3.;.;.;.;.;.;.;.;.;.;.;.;.;.;.;.;.;.;.$.$.$.$.$.$.$.$.$.$.$.$.$.$.=.;.;.;.z.z.z.e.+ * { o.c + + c o.o.",
"d d 1 + + c o.X.k d 7.3.3.3.;.;.;.;.;.;.;.;.;.;.;.;.;.;.;.;.;.;.$.$.$.$.$.$.$.$.$.$.$.$.$.$.=.;.;.;.z.z.z.e.+ * { O.c + + c o.o.",
"d d u 1 1 , , 2 ' [ 9.3.3.3.2.2.2.2.2.2.2.=.=.=.=.=.=.=.=.=.=.=.$.$.$.%.#.#.#.#.#.#.#.>.>.>.,.<.<.<.j.j.j.w.+ * { O.c + + c o.o.",
"d d d d d = X % { O.0.3.3.3.z.z.z.z.z.z.z.$.$.$.$.$.$.$.$.$.$.$.$.$.$.#.;.;.;.;.;.;.;.z.z.z.h.3.3.3.3.3.3.5.+ * { O.c + + c o.o.",
"d d g N N > @ = [ X.0.3.3.3.z.z.z.z.z.z.z.$.$.$.$.$.$.$.$.$.$.$.$.$.$.#.;.;.;.;.;.;.;.z.z.z.h.3.3.3.3.3.3.5.+ * { O.c $ $ l X.X.",
"d s A m.m.Z i i k k 8.3.3.3.z.z.z.z.z.z.z.$.$.$.$.$.$.$.$.$.$.$.$.$.$.#.;.;.;.;.;.;.;.z.z.z.h.3.3.3.3.3.3.5.+ * { o.[ i i d k k ",
"d s D n.n.F j d d d n o.o.n d i # 6 z.z.z.3.3.3.3.3.3.3.3.3.3.3.z.z.z.z.z.z.z.z.z.z.z.3.3.3.c.v.5   = d d - + * } O.[ d d d d d ",
"d d C R R e , 2 v n ` [ [ v d a ; 8 z.z.z.3.3.3.3.3.3.3.3.3.3.3.z.z.z.z.z.z.z.z.z.z.z.3.3.3.x.! 0 = < d d - + & U / P d d d d d ",
"d d 1 + + + + * { o.[ d d d d d d W z.z.z.3.3.3.3.3.3.3.3.3.3.3.z.z.z.z.z.z.z.z.z.z.z.3.3.3.9 d d d d d d - + 5 E n._ d d d d d ",
"d d 1 + + + + * { o.[ d d d d d d W z.z.z.3.3.3.3.3.3.3.3.3.3.3.z.z.z.z.z.z.z.z.z.z.z.3.3.3.9 d d d d d d - + 5 E n._ d d d d d ",
"d d u 1 1 1 1 1 , , p [ [ [ [ ] k d u 1 1 k n v d d k n n k d d d d u 1 1 1 1 1 , , p [ [ v d d d d d d d - + & U / P d d d d d ",
"d d d d d d d i # X , o.o.o.o.X.k d d d d d d d d d d d d d d d d d d d d d d i # X , o.o.n d d d d d d d - + * } O.[ d d d d d ",
"d d d d d d d i # + , o.o.o.o.X.k d d d d d d d d d d d d d d d d d d d d d d i # + , o.o.n d d d d d d d - + * { o.[ d d d d d "
};
