/* XPM */
static char *result[] = {
/* columns rows colors chars-per-pixel */
"64 64 208 2 ",
"   c #553311",
".  c #59341C",
"X  c #643606",
"o  c #6A3807",
"O  c #623F1C",
"+  c #633A24",
"@  c #784716",
"#  c #684521",
"$  c #77522D",
"%  c #001C54",
"&  c #091E5D",
"*  c #092358",
"=  c #162D5A",
"-  c #182A59",
";  c #27385F",
":  c #002F67",
">  c #04356C",
",  c #212E63",
"<  c #2B3D61",
"1  c #683258",
"2  c #79325B",
"3  c #6E3177",
"4  c #70317E",
"5  c #3F4C66",
"6  c #66606D",
"7  c #676473",
"8  c #636870",
"9  c #6B6E73",
"0  c #756D75",
"q  c #777776",
"w  c #797676",
"e  c #777579",
"r  c #7A747B",
"t  c #82501E",
"y  c #8A5827",
"u  c #93673A",
"i  c #852D77",
"p  c #A47444",
"a  c #A27A52",
"s  c #B98F6C",
"d  c #C6894C",
"f  c #CA925B",
"g  c #CF9358",
"h  c #CEA75B",
"j  c #CFA85B",
"k  c #D5AC5E",
"l  c #D8AF5F",
"z  c #DAB05F",
"x  c #D39960",
"c  c #CFA960",
"v  c #C7A96E",
"b  c #CEAD6D",
"n  c #D4AF65",
"m  c #D8A76B",
"M  c #DCB261",
"N  c #D7B26C",
"B  c #DBB46A",
"V  c #DEB86F",
"C  c #CFAF75",
"Z  c #D5A677",
"A  c #D9AC7C",
"S  c #CFB27F",
"D  c #D3B374",
"F  c #DDB872",
"G  c #D3B378",
"H  c #E2B763",
"J  c #E6BA64",
"K  c #E3AF7D",
"L  c #EAB37D",
"P  c #3C2087",
"I  c #5A3690",
"U  c #77348B",
"Y  c #4C2AAC",
"T  c #6929AD",
"R  c #005E98",
"E  c #307C84",
"W  c #3B55BF",
"Q  c #006AA4",
"!  c #634C92",
"~  c #7E7781",
"^  c #7E659A",
"/  c #4B7BFE",
"(  c #5C74FF",
")  c #6A6CFA",
"_  c #92318D",
"`  c #A02AAF",
"'  c #A36499",
"]  c #8F5EA0",
"[  c #8A53B6",
"{  c #9A55B4",
"}  c #9D52B8",
"|  c #A14FBF",
" . c #A050BD",
".. c #8730DA",
"X. c #8831DA",
"o. c #B13DDB",
"O. c #8D3BEA",
"+. c #9A2FF5",
"@. c #9D2EFF",
"#. c #8C36F8",
"$. c #8E32FD",
"%. c #8A3BFF",
"&. c #9130FF",
"*. c #9737FD",
"=. c #993CF8",
"-. c #B027E7",
";. c #B12AFC",
":. c #B929FE",
">. c #A63AFB",
",. c #B634FF",
"<. c #B93BFB",
"1. c #CE3FEF",
"2. c #C526FF",
"3. c #C52AFB",
"4. c #C62CF9",
"5. c #CD3BF2",
"6. c #874FC6",
"7. c #884CCD",
"8. c #8B45D9",
"9. c #BB75CA",
"0. c #964AEB",
"q. c #9D42F4",
"w. c #B443EA",
"e. c #BC41E9",
"r. c #AA47F4",
"t. c #CD75CF",
"y. c #DF74CE",
"u. c #DD7EC8",
"i. c #E27ACD",
"p. c #E074D1",
"a. c #C045ED",
"s. c #CA4DEB",
"d. c #3A868E",
"f. c #73B2B9",
"g. c #008CC7",
"h. c #0092CE",
"j. c #0B95CB",
"k. c #009AD5",
"l. c #3A8EF9",
"z. c #3B94FE",
"x. c #03B5F6",
"c. c #05B9F2",
"v. c #00BFFE",
"b. c #0BBEFA",
"n. c #33BEEC",
"m. c #4489FF",
"M. c #5781FF",
"N. c #5E85FA",
"B. c #6C8DF1",
"V. c #00C1FF",
"C. c #0DC1F9",
"Z. c #16C0F5",
"A. c #2BC1ED",
"S. c #3DC2E5",
"D. c #33C2E9",
"F. c #56C3DC",
"G. c #76C5CF",
"H. c #7CC5CC",
"J. c #4BC2E1",
"K. c gray62",
"L. c #BC9E87",
"P. c #AAA18F",
"I. c #ADA391",
"U. c #B5AC9A",
"Y. c #B9AF9E",
"T. c #BBB19F",
"R. c #A783B4",
"E. c #A98DB3",
"W. c #B296BC",
"Q. c #A2A2A2",
"!. c #ACACAC",
"~. c #B9B1A1",
"^. c gray69",
"/. c #CFB385",
"(. c #CDB08C",
"). c #D0B380",
"_. c #EBB988",
"`. c #F2BF8E",
"'. c #E7BA96",
"]. c #EB96BB",
"[. c #EC9AB8",
"{. c #CDB5B7",
"}. c #F4BDA2",
"|. c #B1C7B8",
" X c #F4C18E",
".X c #EFCA9F",
"XX c #F2C397",
"oX c #FAC697",
"OX c #FAC49E",
"+X c #F3CA9D",
"@X c #FECB99",
"#X c #D7C9A7",
"$X c #D6C9A8",
"%X c #D5C9B9",
"&X c #E8C6A4",
"*X c #FAD5B0",
"=X c #B591C1",
"-X c #ABA7CC",
";X c #CB82C9",
":X c #DA80CE",
">X c #E393C0",
",X c #C9A1C2",
"<X c #80C4CC",
"1X c #C2C9D6",
"2X c #EFDECE",
"3X c #F6DEC8",
"4X c #FDE9D4",
"5X c #F7F5F4",
/* pixels */
"j j j j j M J J J J H M M M M z k h k J J J J J z M M M M M M n z z M M M M M z j j l J J H M M M M n h h H J J l z l h k z J J ",
"j j j j j z J J J J H z M M M M h h k J J J J H H z M M M M M M M z M M M M M M j h l J H H M M M M l h h H J J l H k h h H J J ",
"j k k k k B F V H z M H H M M M k k k H H H z H H H M k M M H M B N N k k M M M l j l M H M H M M M l j k l H H H H k h h N J F ",
"M M M M M D /.S n j z J J J J J z D ^.^.^.K.K.K.K.^.^.^.Q.K.K.K.K.K.K.K.K.K.K.^.^.^.^.^.^.^.F H M M M M M j h j H J H h j C /./.",
"M M M M M G /.S j j l J J J J J z D ^.^.^.K.K.K.K.!.^.^.Q.K.K.K.K.K.K.K.K.K.K.^.^.^.^.^.^.^.F J M M M M M j h j J J z h j C /./.",
"k k z H H B N N M l z M M M l z H D ^.^.^.K.K.K.K.^.^.^.Q.K.K.K.K.K.K.K.K.K.K.^.^.^.^.^.^.^.D H M M N G D N l n k z z H H N N N ",
"h h k J J H M M M M M M M k j k H F ^.^.^.K.K.K.K.^.^.^.Q.K.K.K.K.K.K.K.K.K.K.^.^.^.^.^.^.^.D M M M N /./.N M M k h k J J H z z ",
"h j k J J M M M M M Y.^.^.^.K.K.K.K.K.K.K.2.2.2.2.2.2.2.2.2.2.2.2.2.2.2.2.2.2.2.2.2.2.^.^.^.Q.K.K.K.^.^.^.Y.M M h k k J H H M M ",
"j j l J J H M M M J T.^.^.^.Q.K.K.K.K.K.K.2.2.2.2.2.2.2.2.2.2.2.2.2.2.2.2.2.2.2.2.2.2.^.^.^.Q.K.K.K.^.^.^.T.J J z z z k k M J J ",
"j j k J J M M M J J T.^.^.^.K.K.K.Q.K.K.K.2.2.2.2.2.2.2.2.2.2.2.2.2.2.2.2.2.2.2.2.2.2.^.^.^.Q.K.K.K.^.^.^.T.J J M M k j h z J J ",
"j j l J J M l l M M T.^.^.^.e.e.o.e.5.o.<.2.2.2.2.@.@.@.@.@.@.@.@.@.@.@.@.@.@.2.2.2.2.a.a.a.a.o.e.e.Q.Q.Q.I.M M H M M z l M H H ",
"j j l J J l j j j j ~.^.^.^.2.2.2.2.2.2.4.3.2.2.2.&.&.&.&.&.&.&.&.&.&.&.&.&.&.2.2.2.2.2.2.2.2.2.2.2.K.K.K.I.j j H J J J J H M M ",
"j j l J J z j j j j T.^.^.^.2.2.2.2.2.2.2.2.2.2.2.&.&.&.@.&.&.&.&.&.&.&.&.&.&.2.2.2.3.3.2.2.2.2.2.2.K.K.K.P.j k H J J J J H M M ",
"j j l J J z k l n k Y.^.^.^.2.2.2.2.2.2.2.2.2.:.` U 3 3 3 4 3 3 3 3 3 3 3 3 3 i i i ` -.2.2.2.2.2.2.K.K.K.I.l l M H M M M M M M ",
"j j k J J H z ^.^.^.Q.K.K.K.2.2.2.:.&.&.&.&.&.+.U .                                 1 X.&.&.:.2.2.2.K.K.K.Q.^.^.^.M M M M M M z ",
"j j z J J H M ^.^.^.Q.K.K.K.2.2.2.:.&.&.&.&.&.$.U .                                 1 X.&.&.:.2.2.2.K.K.K.Q.^.^.^.M M M M M M M ",
"j j k J J H M ^.^.^.Q.K.K.K.2.2.2.:.&.&.&.&.&.$.U .                                 1 ..&.&.:.2.2.2.K.K.K.Q.^.^.^.k z J J M M M ",
"j j k J J H M !.!.!.E.R.R.R.2.2.2.:.&.&.&.@.@.+.U . O $ $ $ $ $ $ $ $ $ $ $ $ $ #   1 ..&.&.;.:.:.:.R.R.R.E.^.^.^.j l J J M M M ",
"b b M M M H M K.K.K.e.2.2.2.2.2.2.:.&.&.$.2.2.4._ . u Z ).).A ).A A A A A A A Z a   2 ..&.&.&.&.&.&.2.2.2.a.^.^.^.j k J J H M M ",
"S /.C h k M J K.K.K.e.2.2.2.2.2.2.:.&.&.&.2.2.4._ + a oXOXXXXXoX@X@X@X@XXXXX*X@Xs O 2 ..&.&.&.&.&.&.2.2.2.a.^.^.^.j k J J M M M ",
"/./.C k h z J K.K.K.<.2.2.2.2.2.2.:.&.&.&.2.2.3. .x '.4X2Xq 8 I.@X@X@X'.e 6 %X4X&Xs ' w.&.&.&.&.&.&.2.2.2.a.^.^.^.j M J J H M M ",
"N N n ^.^.^.^.K.K.K.e.3.2.2.&.&.&.&.&.&.&.2.2.4.y.OX3X5X5X; - ' @X@X@X(.< * 1X5X4XoX[.s.2.2.@.&.&.&.2.2.2.e.K.K.K.^.^.^.^.M M M ",
"M M k ^.^.^.^.K.K.K.o.2.2.2.&.&.&.&.&.&.&.2.2.4.i.OX*X4X2X9 6 s L L L Z 0 6 %X4X*X@X[.1.2.2.@.&.&.&.2.2.2.e.K.K.K.^.^.^.^.M M M ",
"M M z ^.^.^.^.K.K.Q.e.2.2.2.&.&.&.&.&.&.&.2.2.4.i.OX@X@X@XoXoXm d d d f oX@X@X@X@XoX[.1.2.2.@.&.&.&.2.2.2.e.K.K.K.^.^.^.^.M M M ",
"M M k ^.^.^.^.K.K.K.e.2.2.2.&.&.&.&.&.&.&.2.2.4.i.OX@X@X@X_._.x g g g x K _.oX@X@X@X[.5.2.2.@.&.&.&.2.2.2.e.K.K.K.^.^.^.^.V J J ",
"M M k ^.^.^.^.2.2.2.2.2.2.2.&.&.&.@.2.2.2.2.2.4.i.OX@X@X`.y t f  X X XK y t K @X@X@X[.s.2.2.@.$.&.&.&.&.&.@.2.2.2.K.K.K.K.F J J ",
"M M M ^.^.^.^.2.2.2.2.2.2.2.&.&.&.*.:.,.<.,.,.<.:XOX@X@X_.@ X d  X`.`.m @ o m @X@X@X[.e.,.,.*.%.q.%.&.&.&.@.2.2.2.K.K.K.K.B H H ",
"M M M ^.^.^.^.2.2.2.2.2.2.2.&.&.&.) ( M.M.M.( N.-X+X@X@X_.@ X y p p p u o o Z @X@X@X{.B.M.M.m.m.l.( $.&.&.@.2.2.2.K.K.K.K.M M M ",
"M n M Q.Q.Q.Q.2.2.2.2.2.2.2.&.&.&./ b.x.v.v.v.b.<X+X@X@X'.@ X X X X X X o X Z @X@X@X|.n.v.b.v.v.x.m.%.$.&.@.2.2.2.K.K.K.K.M M M ",
"M z M K.K.K.K.2.2.2.2.2.2.2.&.&.$./ b.v.v.v.v.b.S.G.H.H.G.d.E E E E E E E d.f.H.H.H.F.C.v.v.v.v.x.m.%.&.&.@.2.2.2.K.K.K.K.z H J ",
"M M k K.K.K.K.2.2.2.2.2.2.2.&.&.$./ b.v.v.v.v.v.C.C.C.b.b.c.c.c.c.c.c.c.c.c.V.C.b.C.b.v.v.v.V.v.v.m.%.$.&.@.2.2.2.K.K.K.K.H J J ",
"M M k K.K.K.K.2.2.2.2.2.2.2.&.&.&.( n.S.n.n.D.D.Z.V.v.V.v.v.V.v.v.V.v.v.v.v.v.V.v.v.C.A.D.n.D.D.n.B.%.&.&.@.2.2.2.K.K.K.K.M J J ",
"M M k K.K.K.K.2.2.2.2.2.2.2.&.&.&.;X&X+X+X+X.X.XG.b.v.V.v.V.v.v.v.v.v.v.v.v.v.V.v.v.J.$X.X.X+X+X+X>X=.&.&.@.2.2.2.^.^.^.^.z J J ",
"M M l K.K.K.K.2.2.2.2.2.2.2.&.&.&.;XOX@X@X@X@X+XH.b.v.v.v.v.v.v.v.v.v.v.v.v.v.v.v.v.J.#X@X@X@X@XoX].=.&.&.@.2.2.2.^.^.^.^.H J J ",
"M M l K.K.K.K.2.2.2.2.2.2.2.&.&.*.;XOX@X@X@X@X+XH.C.v.v.v.v.v.v.v.v.v.v.v.v.v.v.v.v.J.#X@X@X@X@XOX].=.&.&.@.2.2.2.^.^.^.^.N J F ",
"M M M K.K.K.K.2.2.2.2.2.2.2.@.@.>.;XoX@X@X@X@X+XH.b.v.v.v.v.v.v.v.v.V.v.v.v.v.v.v.v.J.#X@X@X@X@XOX].=.&.&.@.2.2.2.^.^.^.^.C /./.",
"M l M K.K.K.K.2.2.2.2.2.2.2.2.2.2.u.OX@X@X@X@X+XH.C.v.v.v.v.v.v.V.V.V.V.v.v.V.v.v.v.J.#X@X@X@X@X@X].=.&.&.@.2.2.2.^.^.^.^.C /./.",
"M n M K.K.K.K.2.2.2.2.2.2.2.2.2.3.u.OX@X@X@X@XXXH.C.V.V.v.v.v.v.V.V.V.V.V.V.v.v.v.v.J.#X@X@X@X@XOX].=.&.&.@.2.2.2.^.^.^.^.B F J ",
"M M M K.K.K.K.2.2.2.2.2.2.2.2.2.3.u.OX@X@X@X@XoX<Xj.h.h.h.h.h.h.h.h.h.h.h.h.x.v.v.v.J.,X[.[.[.[.[.p.*.&.&.@.2.2.2.^.^.^.^.M J J ",
"M M M ^.^.^.^.^.^.^.a.2.2.2.2.2.3.u.OX@X@X@X@X`.w > : : : : : : : : : : : > k.V.v.v.l.r.1.1.>.=.q.=.&.&.&.0.K.K.K.K.K.K.K.M J H ",
"M M N ^.^.^.^.^.^.^.a.2.2.2.2.2.2.i.OX@X@X@X@XXX~ & % % % % % % % % % % % * g.x.x.v.l.q.2.2.@.&.&.&.&.&.&.0.K.K.K.K.K.K.K.k k h ",
"M k N ^.^.^.^.^.^.^.a.2.2.2.2.2.3.u.OX@X@X@X@XXXa * % % % % % % % % % % % % : : Q x.z.>.2.2.@.&.&.&.&.&.&.0.K.K.K.K.K.K.K.k h h ",
"M M N ^.^.^.^.^.^.^.a.2.2.2.2.2.3.i.}.`.+XOXOX'.r * % % % % % % % % % % % % % % R x.l.>.2.2.@.&.&.&.&.&.&.0.K.K.K.K.K.K.K.k k h ",
"M M l M M k h ^.^.^.a.2.2.2.2.2.3.s.y.p.p.t.t.9.! * % % % % % % % % % % % % % * > Q W >.2.2.@.&.&.&.2.2.2.o.K.K.K.M M M M k h h ",
"M M n M M k h !.^.^.5.2.2.2.2.2.2.2.2.2.2.&.&.$.Y & % % % % % % % % % % % % * % % % P -.:.2.@.&.&.&.2.2.2.e.K.K.K.M M M M k h j ",
"M M z M M k j ^.^.^.a.2.2.2.2.2.2.2.2.2.2.&.$.$.Y & % % % % % % % = ; < < < < < < < I -.2.2.@.&.&.&.2.2.2.e.K.K.K.M M M M k n k ",
"M M M M M k j Q.Q.Q.W.=XW.W.2.2.2.2.2.2.2.:.:.;.T & % % % % % % % < 8 9 9 9 9 9 9 9 ] O.@.@.&.&.&.&.=X=X=XW.!.!.!.M M M M M z M ",
"M k M M M k k K.K.K.!.^.!.!.2.2.2.2.2.2.2.2.2.:.T , = = = = = = = 5 q q w w w w w w ] O.&.&.&.&.&.&.^.^.^.^.^.^.^.n n M M M M M ",
"k h k J J M z K.K.K.!.^.^.^.2.2.2.2.2.2.2.2.2.4.} 7 7 8 8 8 8 8 8 9 q q w q q q q q ] O.&.&.&.&.&.&.^.^.^.^.^.^.^.j n /.S N z M ",
"h h k J J M M K.K.K.!.^.^.^.2.2.2.2.2.2.2.2.3.:. .0 e e q q q q q q q w w q q q q q ] O.&.&.&.$.&.&.^.^.^.^.^.^.^.j b /./.N z M ",
"k k k H M H M H M M P.K.K.K.2.2.2.2.2.2.2.2.2.3.} r q q q q q q q ^ 6.7.7.7.7.7.7.7.8.&.&.&.:.2.2.2.^.^.^.T.k k k z n C C B H M ",
"M M k k h H J J M M I.K.K.K.2.2.2.2.2.2.2.2.2.3.| ~ r r r r w w e [ #.&.&.&.&.&.&.&.&.&.&.&.:.3.2.2.^.^.!.Y.k j H J M j j H J J ",
"M M k k h M J J M M I.K.K.K.2.2.2.2.2.2.2.2.2.2.o.} { { { { { { [ 7.&.&.&.&.&.&.&.&.&.&.*.$.:.3.2.2.!.^.^.Y.j k J J z j j M J J ",
"z n k n k k k k H J I.K.K.K.a.a.a.a.a.a.e.:.:.:.:.:.:.:.:.:.:.:.%.&.&.&.@.@.@.@.@.@.@.0.0.0.w.e.a.<.!.!.!.U.h k H J H j j z J J ",
"z M M M M k h h H J I.K.K.K.^.^.^.^.^.^.^.&.&.&.&.&.&.&.&.&.&.&.&.&.&.@.2.2.2.2.2.2.2.^.^.^.Q.K.P.K.K.K.K.P.j j H J z k k M J J ",
"M M M M M n k k H J I.K.K.K.^.^.^.^.^.^.^.&.&.&.&.&.&.&.&.$.&.&.&.&.&.@.2.2.2.2.2.2.2.^.^.^.Q.K.K.K.K.K.K.P.j k J J z j k H J J ",
"M z N /./.N M z M M I.K.K.K.^.^.^.^.^.^.^.&.&.&.&.&.&.&.&.&.&.$.&.&.&.@.2.2.2.2.3.2.2.^.^.^.Q.Q.K.K.K.K.K.P.j k J J H z M M M M ",
"M M N /./.B M z M z M J J H M z k v ^.^.^.K.K.K.K.K.K.K.K.K.K.K.^.^.^.^.^.^.^.^.^.^.^.K.K.K.L.S c j j M M k j j J J J M M M M M ",
"M M n D C n k k H H M H H M M M k v ^.^.^.K.K.K.K.K.K.K.K.K.K.K.^.^.^.^.^.^.^.^.^.^.^.K.K.K./.D n k k M M j j k B V B M M M M M ",
"M M k h h k h k H J J M M M M M M D ^.^.^.K.K.K.K.K.K.K.K.K.K.K.^.^.^.^.^.^.^.^.^.^.^.K.K.K.b M M z M M M k j c S /.G z M M M M ",
"M M k h k h h k J J H M M M M M M D !.^.^.K.K.K.K.K.K.K.K.K.K.K.^.^.^.^.^.^.^.^.^.^.^.K.K.K.b M M M M M z k j c /./.D M M M M M ",
"M M M k n k k k k k M H H H H M M M M k n M M M M M M M M M M M M M M k l k k z l l M M M M M M M M M M z k j j B F B M l M M M ",
"M M M M M M M k k h k J J J J J M M M M z M M M M M M M M M z n M M M M M M M M j j M J J M M M z z M M z k j k J J H M M M M M ",
"n M M M M M M M j h M J J J J J M M M M M M M M M M M M M M M M M M M M M M M z j j l J J H M M M n M M z k j k J J M l n M M M "
};
